#!OML:ASF E:/inclinewalkrobotboard/Project1/Captureday1/Session1/subject1.ASF
:FULLY-SPECIFIED
:DEGREES
188
root 0 0 0 1.3139417366816621 -3.8539279215076823 1.832647361237814
lowerback 12.16927078801661 0.8577028152646502 -0.05984315650595928
upperback -4.386093279843396 1.0950380088082985 -0.5683886530276124
thorax -11.618865792403396 0.49754080332251216 -0.8203332283488907
lowerneck -6.010289414629368 1.5941649008601828 4.463809027895775
upperneck 18.388511727890723 3.0994170239951337 -8.197264839463665
head 6.7436438112984245 1.1344642639715343 -3.143223731911367
rclavicle 1.9322814960826757E-15 -4.034048533951345E-16
rhumerus 21.253325191084514 15.771859306944764 -47.637673131965535
rradius 73.64703257594374
rwrist 26.822787203146724
rhand -34.66051260913483 -57.66372170807011
rfingers 7.125020000000014
rthumb -7.80141012308656 -87.60791483653915
lclavicle -4.3613869403288755E-16 -1.0194095343867196E-15
lhumerus 22.124290932574397 -12.529127639656624 43.86415879141251
lradius 71.11754387815355
lwrist -23.560635219660973
lhand -44.621630901773294 -71.13286984383143
lfingers 7.125020000000031
lthumb -17.40114346243506 -41.83487020268204
rfemur -25.231499465497347 -2.2181167197013343 17.200853325726346
rtibia 54.19621628757358
rfoot -29.69927337500906 -16.76747176338358
rtoes -18.432199195519477
lfemur -26.48883812870158 2.2909584548385156 -17.627703331484533
ltibia 53.330117869736505
lfoot -32.60030868250236 -2.612901077469033
ltoes -21.017084542546105
189
root 0 0 0 1.3138979650497076 -3.8536597175372487 1.8326517715738917
lowerback 12.16926684903397 0.8576631077835439 -0.059892069869812325
upperback -4.386158637724594 1.09497651400385 -0.5683992804303281
thorax -11.618941119002098 0.49751029311243966 -0.8203040684755745
lowerneck -6.01046368015393 1.5942589790184385 4.463851649627589
upperneck 18.388730499506636 3.0995340370812885 -8.197302144370592
head 6.743737745929952 1.1345119521962106 -3.1432278652887256
rclavicle 1.9322647325134153E-15 -4.0324356731419537E-16
rhumerus 21.253176986025466 15.77168244719631 -47.63771462299083
rradius 73.64693822650187
rwrist 26.822767250912975
rhand -34.660627053258054 -57.66375133333001
rfingers 7.125020000000014
rthumb -7.801514907345156 -87.60790852384343
lclavicle -4.376385037938186E-16 -1.0202018167038898E-15
lhumerus 22.124560233462987 -12.529309660992462 43.86399343291161
lradius 71.1178658382936
lwrist -23.56072134069759
lhand -44.621633208290206 -71.13319085882952
lfingers 7.125020000000031
lthumb -17.401139233359824 -41.8351599980939
rfemur -25.231240274271357 -2.218074198482535 17.20090385756135
rtibia 54.19619438774982
rfoot -29.698950742175754 -16.76726884155081
rtoes -18.432963181727
lfemur -26.488810684882754 2.2907918162664904 -17.62756950072435
ltibia 53.3298679490931
lfoot -32.60043540941816 -2.613397706045798
ltoes -21.018515821901985
190
root 0 0 0 1.3138431145798832 -3.8534474838703483 1.832608663763902
lowerback 12.169247582009058 0.8576419068000823 -0.059878652699901
upperback -4.386188651346849 1.09495067118692 -0.568394313075503
thorax -11.618966536336043 0.49749655216130834 -0.8203048324316509
lowerneck -6.010521779430903 1.5942979848527663 4.463895291177496
upperneck 18.388836130926844 3.099582132306214 -8.19733857979321
head 6.743778651007118 1.134531006174424 -3.143242372242743
rclavicle 1.932112238509525E-15 -4.031335489919186E-16
rhumerus 21.2531882559608 15.771635125667826 -47.637622115058164
rradius 73.64696611834114
rwrist 26.822825391348026
rhand -34.66074655779458 -57.66393145512377
rfingers 7.125020000000014
rthumb -7.801630136684986 -87.60809118997614
lclavicle -4.3726258820198396E-16 -1.0195657711539965E-15
lhumerus 22.124608543234828 -12.52935076054194 43.86398880311886
lradius 71.11791729488294
lwrist -23.560702719204897
lhand -44.62165488867243 -71.13327648310948
lfingers 7.125020000000031
lthumb -17.40116411295581 -41.83526539465744
rfemur -25.231139618735682 -2.2180159786779825 17.200907550451774
rtibia 54.19602471239034
rfoot -29.698936633295904 -16.767252961699587
rtoes -18.433082284973892
lfemur -26.488413032694282 2.2908275784550574 -17.627319721318305
ltibia 53.330007151825676
lfoot -32.599737998852966 -2.6140211882941697
ltoes -21.01994657691921
191
root 0 0 0 1.309173641420223 -3.8102219729475197 1.8247683970546285
lowerback 12.147372070806206 0.8557220612492245 -0.06672044850518632
upperback -4.376750230188959 1.0910151465815299 -0.5658594772754938
thorax -11.595990391543754 0.49599689086016563 -0.8129148809745954
lowerneck -6.048201753162423 1.5916192443004606 4.4628661873442
upperneck 18.40514663394538 3.0942067624181018 -8.18809065774964
head 6.754970176778943 1.1316729807919415 -3.141092602025809
rclavicle 1.5127688826230573E-15 -5.160789019222997E-16
rhumerus 21.002846554241565 15.566153040618717 -47.73570254694192
rradius 73.40040549013575
rwrist 26.76273331842071
rhand -34.55598484582245 -57.313405722444685
rfingers 7.1250200000000135
rthumb -7.700067569514747 -87.25676133797826
lclavicle -5.875171154702845E-16 -9.172550982500408E-16
lhumerus 21.97577472972786 -12.51895956166805 44.00195788882983
lradius 70.97161915586054
lwrist -23.44062526864522
lhand -44.5991462351596 -70.85618559322404
lfingers 7.12502000000003
lthumb -17.379636572566383 -41.5644327034462
rfemur -25.040227938244904 -2.1682568841396748 17.2165756574754
rtibia 54.099196364561955
rfoot -29.54708702306465 -16.811582651407534
rtoes -18.397829261912552
lfemur -26.497410754680686 2.241077895817708 -17.636739802662273
ltibia 53.16236534192744
lfoot -32.60423365950257 -2.565906437734465
ltoes -20.931539917820857
192
root 0 0 0 1.294862903108334 -3.7994671831545563 1.8181269433148772
lowerback 12.14561469530761 0.8577806672652503 -0.061746573763595825
upperback -4.363452172972103 1.0947049080448772 -0.562769128295035
thorax -11.580376157997765 0.49787368649340713 -0.8133395142273963
lowerneck -6.055740792550738 1.5813114613806352 4.466197983285666
upperneck 18.39194733525284 3.0791173274668573 -8.190367307423383
head 6.752199222337765 1.1248862165118818 -3.1444643307437508
rclavicle 1.6638305823197918E-15 -4.3942708277202345E-16
rhumerus 20.903986985183295 15.468754252488809 -47.740237625892206
rradius 73.31332326023929
rwrist 26.766775533734318
rhand -34.565934707883365 -57.23242106291687
rfingers 7.1250200000000135
rthumb -7.706647057566988 -87.17197009470515
lclavicle -5.434763661334034E-16 -8.987720557030745E-16
lhumerus 21.87083469393393 -12.46319192452829 44.05620285979215
lradius 70.88756897636138
lwrist -23.42412640125518
lhand -44.591082835453605 -70.77682312685597
lfingers 7.125020000000029
lthumb -17.368942753999416 -41.49514568758343
rfemur -25.09659706378298 -2.172662400099269 17.23982403469112
rtibia 54.10781430569409
rfoot -29.522525944226068 -16.758866829887218
rtoes -18.371548578596
lfemur -26.41654708043621 2.2507101381525385 -17.625567631409286
ltibia 53.23842577671232
lfoot -32.51550333967369 -2.6419032798029853
ltoes -21.04283843648485
